# xmcd
#
# Track frame offsets:
#	183
#	13905
#	27878
#	45493
#	58530
#	70705
#	85480
#	105063
#	120353
#	132635
#	146455
#	157325
#	171723
#	186845
#	201410
#	218463
#	236770
#	251423
#
# Disc length: 3562 seconds
# Revision: 2
# Processed by: cddbd v1.5.2PL0 Copyright (c) Steve Scherf et al.
# Submitted via: dBpowerAMP V12.0
#
DISCID=010de812
DTITLE=Kenny Rogers - His Greatest Hits and Finest Performances Disc 1
DYEAR=1991
DGENRE=Country
TTITLE0=I Wish I Could Hurt That Way Again
TTITLE1=Till I Get It Right
TTITLE2=We Don't Make Love Anymore
TTITLE3=Ruby Don't Take Your Love To Town
TTITLE4=Reuben James
TTITLE5=But You Know I Love You
TTITLE6=Something's Burning
TTITLE7=Just Dropped In
TTITLE8=Old Folks
TTITLE9=Every Time Two Fools Collide
TTITLE10=Anyone Who Isn't Me Tonight
TTITLE11=All I Ever Need Is You
TTITLE12=Til I Can Make It On My Own
TTITLE13=You Needed Me
TTITLE14=Love Lifted Me
TTITLE15=While The Feeling's Good
TTITLE16=Love The World Away
TTITLE17=Sail Away
EXTD=
EXTT0=
EXTT1=
EXTT2=
EXTT3=
EXTT4=
EXTT5=
EXTT6=
EXTT7=
EXTT8=
EXTT9=
EXTT10=
EXTT11=
EXTT12=
EXTT13=
EXTT14=
EXTT15=
EXTT16=
EXTT17=
PLAYORDER=
